# AST/ASF file generated using VICON BodyLanguage
# -----------------------------------------------
:version 1.10
:name VICON
:units
  mass 1.0
  length 0.45
  angle deg
:documentation
   .ast/.asf automatically generated from VICON data using
   VICON BodyBuilder and BodyLanguage model FoxedUp or BRILLIANT.MOD
:root
   order TX TY TZ RX RY RZ
   axis XYZ
   position 0 0 0  
   orientation 0 0 0 
:bonedata
  begin
     id 1 
     name lhipjoint
     direction 0.660183 -0.676772 0.325788 
     length 2.75133 
     axis 0 0 0  XYZ
  end
  begin
     id 2 
     name lfemur
     direction 0.34202 -0.939693 0  
     length 7.70317  
     axis 0 0 20  XYZ
    dof rx ry rz
    limits (-160.0 20.0)
           (-70.0 70.0)
           (-60.0 70.0)
  end
  begin
     id 3 
     name ltibia
     direction 0.342105 -0.939662 0   
     length 7.18701   
     axis 0 0 20   XYZ
    dof rx
    limits (-10.0 170.0)
  end
  begin
     id 4 
     name lfoot
     direction 0.14163 -0.389126 0.910232   
     length 2.41719   
     axis -90 7.62852e-016 20   XYZ
    dof rx rz
    limits (-45.0 90.0)
           (-70.0 20.0)
  end
  begin
     id 5 
     name ltoes
     direction 1.53533e-011 -4.21926e-011 1   
     length 1.18611   
     axis -90 7.62852e-016 20   XYZ
    dof rx
    limits (-90.0 20.0)
  end
  begin
     id 6 
     name rhipjoint
     direction -0.6658 -0.67229 0.323631   
     length 2.76968  
     axis 0 0 0  XYZ 
  end
  begin
     id 7 
     name rfemur
     direction -0.34202 -0.939693 0   
     length 7.92547   
     axis 0 0 -20   XYZ
    dof rx ry rz
    limits (-160.0 20.0)
           (-70.0 70.0)
           (-70.0 60.0)
  end
  begin
     id 8 
     name rtibia
     direction -0.342022 -0.939692 0   
     length 7.22641   
     axis 0 0 -20   XYZ
    dof rx
    limits (-10.0 170.0)
 end
 begin
     id 9 
     name rfoot
     direction -0.105675 -0.29034 0.951071   
     length 2.48149  
     axis -90 -7.62852e-016 -20   XYZ
    dof rx rz
    limits (-45.0 90.0)
           (-20.0 70.0)
  end
  begin
     id 10 
     name rtoes
     direction -1.5349e-011 -4.21859e-011 1   
     length 1.23343   
     axis -90 -7.62852e-016 -20   XYZ
    dof rx
    limits (-90.0 20.0)
  end
  begin
     id 11 
     name lowerback
     direction 0.0104173 0.993624 -0.112266   
     length 2.00527   
     axis 0 0 0   XYZ
    dof rx ry rz
    limits (-20.0 45.0)
           (-30.0 30.0)
           (-30.0 30.0)
  end
  begin
     id 12 
     name upperback
     direction 0.00733149 0.999856 -0.0152913   
     length 2.01385   
     axis 0 0 0   XYZ
    dof rx ry rz
    limits (-20.0 45.0)
           (-30.0 30.0)
           (-30.0 30.0)
  end
  begin
     id 13 
     name thorax
     direction 0.0026304 0.999318 0.036841   
     length 2.03734   
     axis 0 0 0   XYZ
    dof rx ry rz
    limits (-20.0 45.0)
           (-30.0 30.0)
           (-30.0 30.0)
  end
  begin
     id 14 
     name lowerneck
     direction 0.0293154 0.998757 0.0403082   
     length 1.65303   
     axis 0 0 0   XYZ
    dof rx ry rz
    limits (-20.0 45.0)
           (-30.0 30.0)
           (-30.0 30.0)
  end
  begin
     id 15 
     name upperneck
     direction -0.0376619 0.998184 -0.0470083   
     length 1.60926   
     axis 0 0 0   XYZ
    dof rx ry rz
    limits (-20.0 45.0)
           (-30.0 30.0)
           (-30.0 30.0)
  end
  begin
     id 16
     name head
     direction -0.0170133 0.999635 -0.0209778  
     length 1.73625  
     axis 0 0 0   XYZ
    dof rx ry rz
    limits (-20.0 45.0)
           (-30.0 30.0)
           (-30.0 30.0)
  end
  begin
     id 17 
     name lclavicle
     direction 0.919857 0.39181 -0.0186333  
     length 3.75313  
     axis 0 0 0   XYZ
    dof ry rz
    limits (-20.0 10.0)
           (0.0 20.0)
  end
  begin
     id 18 
     name lhumerus
     direction 1 -4.48988e-011 1.44029e-027   
     length 5.49313   
     axis 180 -30 -90   XYZ
    dof rx ry rz
    limits (-60.0 90.0)
           (-90.0 90.0)
           (-90.0 90.0)
  end
  begin
     id 19
     name lradius
     direction 1 -4.48924e-011 7.46281e-027   
     length 3.29037   
     axis 180 -30 -90   XYZ
    dof rx
    limits (-10.0 170.0)
  end
  begin
     id 20
     name lwrist
     direction 1 -4.48955e-011 2.19879e-026   
     length 1.64519   
     axis -1.34358e-014 90 90   XYZ
    dof ry
    limits (-180.0 0.0)
 end
  begin
     id 21 
     name lhand
     direction 1 -4.48978e-011 4.39747e-026   
     length 0.729656   
     axis -2.80598e-014 90 90   XYZ
    dof rx rz
    limits (-90.0 90.0)
           (-45.0 45.0)
  end
  begin
     id 22 
     name lfingers
     direction 1 -4.49071e-011 8.79411e-026   
     length 0.588268   
     axis -5.61193e-014 90 90   XYZ
    dof rx
    limits (0.0 90.0)
  end
  begin
     id 23
     name lthumb
     direction 0.707107 -6.34817e-011 0.707107   
     length 0.844638   
     axis -90 45 -9.86923e-015   XYZ
    dof rx rz
    limits (-45.0 45.0)
           (-45.0 45.0)
  end
  begin
     id 24 
     name rclavicle
     direction -0.919898 0.388279 0.0550233   
     length 3.7171  
     axis 0 0 0   XYZ 
    dof ry rz
    limits (-10.0 20.0)
           (-20.0 0.0)
  end
  begin
     id 25 
     name rhumerus
     direction -1 -4.48968e-011 9.98372e-028  
     length 5.23684   
     axis 180 30 90   XYZ
    dof rx ry rz
    limits (-90.0 60.0)
           (-90.0 90.0)
           (-90.0 90.0)
  end
  begin
     id 26 
     name rradius
     direction -1 -4.48956e-011 1.01023e-026   
     length 3.38251   
     axis 180 30 90   XYZ
    dof rx
    limits (-10.0 170.0)
  end
  begin
     id 27 
     name rwrist
     direction -1 -4.4892e-011 2.19886e-026   
     length 1.69126   
     axis -1.34358e-014 -90 -90   XYZ
    dof ry
    limits (-180.0 0.0)
  end
  begin
     id 28
     name rhand
     direction -1 -4.49024e-011 4.39727e-026   
     length 0.691454   
     axis -2.80598e-014 -90 -90   XYZ
    dof rx rz
    limits (-90.0 90.0)
           (-45.0 45.0)
  end
  begin
     id 29
     name rfingers
     direction -1 -4.49097e-011 8.79388e-026   
     length 0.557468   
     axis -5.61193e-014 -90 -90   XYZ
    dof rx
    limits (0.0 90.0)
  end
  begin
     id 30
     name rthumb
     direction -0.707107 -6.34938e-011 0.707107   
     length 0.800416   
     axis -90 -45 9.86923e-015   XYZ
    dof rx rz
    limits (-45.0 45.0)
           (-45.0 45.0)
  end
:hierarchy
  begin
    root lhipjoint rhipjoint lowerback
    lhipjoint lfemur
    lfemur ltibia
    ltibia lfoot
    lfoot ltoes
    rhipjoint rfemur
    rfemur rtibia
    rtibia rfoot
    rfoot rtoes
    lowerback upperback
    upperback thorax
    thorax lowerneck lclavicle rclavicle
    lowerneck upperneck
    upperneck head
    lclavicle lhumerus
    lhumerus lradius
    lradius lwrist
    lwrist lhand lthumb
    lhand lfingers
    rclavicle rhumerus
    rhumerus rradius
    rradius rwrist
    rwrist rhand rthumb
    rhand rfingers
  end

#!OML:ASF H:\BabyWalks\Project 1\Capture day 1\Session 1\baby.ASF
:FULLY-SPECIFIED
:DEGREES
195
root -30.4643 17.4998 15.1532 -9.42059 73.4679 -21.0309
lowerback 15.1542 2.00523 -5.29695
upperback 5.06012 1.99244 -2.31211
thorax -3.20223 1.07487 0.203002
lowerneck -4.23937 2.24065 6.50502
upperneck -1.24832 2.72755 -2.05853
head 0.451892 1.34219 -1.69934
rclavicle 4.77083e-015 -5.24792e-014
rhumerus -50.5561 17.35 -92.3
rradius 41.7303
rwrist 0.312401
rhand -12.9156 -14.2882
rfingers 7.12502
rthumb 13.1745 -43.8519
lclavicle 4.77083e-015 -5.24792e-014
lhumerus -36.6172 -8.51659 73.7313
lradius 61.7287
lwrist 7.07078
lhand -4.12631 10.5235
lfingers 7.12502
lthumb 21.6327 39.3351
rfemur -18.4405 0.190663 19.5612
rtibia 49.9747
rfoot -19.2641 4.17461
rtoes -17.4888
lfemur -12.5365 -3.84437 -15.5186
ltibia 32.7826
lfoot -29.7222 -5.90773
ltoes 2.21352
196
root -30.3722 17.5085 15.1706 -9.25297 73.4119 -20.8948
lowerback 15.1833 1.95643 -5.33215
upperback 5.04222 1.92031 -2.27312
thorax -3.23594 1.03916 0.275353
lowerneck -4.28172 2.27758 6.52017
upperneck -1.16351 2.77217 -2.13454
head 0.489544 1.36461 -1.72514
rclavicle -3.26007e-014 9.54166e-015
rhumerus -50.6104 17.3592 -92.3018
rradius 41.639
rwrist 0.468076
rhand -12.7693 -14.3244
rfingers 7.12502
rthumb 13.3155 -43.879
lclavicle -3.26007e-014 9.54166e-015
lhumerus -36.1539 -8.7224 73.5894
lradius 62.0702
lwrist 7.46039
lhand -4.40099 10.5807
lfingers 7.12502
lthumb 21.3689 39.4224
rfemur -19.328 0.0973858 19.6219
rtibia 50.1847
rfoot -19.4121 4.48185
rtoes -17.862
lfemur -12.0752 -3.79485 -15.5739
ltibia 32.4511
lfoot -29.4918 -6.08863
ltoes 1.97671
197
root -30.2784 17.518 15.1889 -9.10056 73.3616 -20.7558
lowerback 15.2288 1.9016 -5.35927
upperback 5.02972 1.84099 -2.23
thorax -3.27212 1.00004 0.348497
lowerneck -4.3333 2.31978 6.53447
upperneck -1.06837 2.82328 -2.22093
head 0.532618 1.39023 -1.75391
rclavicle 7.95139e-015 3.49861e-014
rhumerus -50.6502 17.3652 -92.2989
rradius 41.5196
rwrist 0.62869
rhand -12.5964 -14.3673
rfingers 7.12502
rthumb 13.4822 -43.911
lclavicle 7.95139e-015 3.49861e-014
lhumerus -35.696 -8.91453 73.4374
lradius 62.3733
lwrist 7.8324
lhand -4.68581 10.6207
lfingers 7.12502
lthumb 21.0953 39.4932
rfemur -20.1681 0.0500338 19.6944
rtibia 50.2723
rfoot -19.5476 4.70287
rtoes -18.1292
lfemur -11.5976 -3.74429 -15.6272
ltibia 32.128
lfoot -29.2379 -6.2886
ltoes 1.67143
198
root -30.1829 17.5279 15.2085 -8.9974 73.3075 -20.6421
lowerback 15.2995 1.84536 -5.36659
upperback 5.02369 1.76163 -2.18752
thorax -3.31423 0.961224 0.409371
lowerneck -4.39665 2.36743 6.5596
upperneck -0.966332 2.88055 -2.31223
head 0.580608 1.41886 -1.78597
rclavicle -1.43125e-014 2.06736e-014
rhumerus -50.6709 17.3527 -92.2997
rradius 41.3743
rwrist 0.787395
rhand -12.396 -14.4201
rfingers 7.12502
rthumb 13.6754 -43.9508
lclavicle -1.43125e-014 2.06736e-014
lhumerus -35.2818 -9.10449 73.2649
lradius 62.6872
lwrist 8.17344
lhand -4.96315 10.6833
lfingers 7.12502
lthumb 20.8288 39.5852
rfemur -20.9509 0.0651831 19.7871
rtibia 50.2363
rfoot -19.7013 4.82895
rtoes -18.4369
lfemur -11.0877 -3.67709 -15.6665
ltibia 31.8047
lfoot -28.9548 -6.5118
ltoes 1.28491
199
root -30.086 17.5389 15.2291 -8.9134 73.269 -20.5304
lowerback 15.3967 1.78081 -5.36747
upperback 5.02083 1.67098 -2.14443
thorax -3.36636 0.917194 0.468807
lowerneck -4.47103 2.42029 6.59443
upperneck -0.856637 2.94374 -2.4119
head 0.633722 1.45035 -1.82224
rclavicle 0 -6.36111e-015
rhumerus -50.6774 17.3317 -92.3032
rradius 41.2132
rwrist 0.937042
rhand -12.19 -14.4783
rfingers 7.12502
rthumb 13.8739 -43.9956
lclavicle 0 -6.36111e-015
lhumerus -34.928 -9.28018 73.0739
lradius 63.0255
lwrist 8.47045
lhand -5.22018 10.7882
lfingers 7.12502
lthumb 20.5818 39.7171
rfemur -21.6811 0.128699 19.8834
rtibia 50.0743
rfoot -19.8331 4.87414
rtoes -18.6208
lfemur -10.5592 -3.60355 -15.7026
ltibia 31.4739
lfoot -28.6273 -6.76847
ltoes 0.831631
200
root -29.9865 17.5515 15.2509 -8.80719 73.2498 -20.3778
lowerback 15.5034 1.70685 -5.37032
upperback 5.02749 1.56813 -2.103
thorax -3.41261 0.867222 0.530049
lowerneck -4.55589 2.47729 6.62791
upperneck -0.746141 3.01205 -2.51782
head 0.68947 1.48423 -1.8601
rclavicle 0 -2.38542e-014
rhumerus -50.6648 17.305 -92.3043
rradius 41.0328
rwrist 1.0816
rhand -12.0033 -14.5176
rfingers 7.12502
rthumb 14.0538 -44.0225
lclavicle 0 -2.38542e-014
lhumerus -34.6539 -9.42561 72.8738
lradius 63.4068
lwrist 8.70911
lhand -5.47579 10.8808
lfingers 7.12502
lthumb 20.3362 39.8361
rfemur -22.3497 0.236633 19.9623
rtibia 49.7848
rfoot -19.9334 4.8693
rtoes -18.6456
lfemur -10.0031 -3.53193 -15.7522
ltibia 31.1262
lfoot -28.2501 -7.05505
ltoes 0.318299
201
root -29.8839 17.5657 15.2738 -8.62717 73.2633 -20.1228
lowerback 15.6287 1.62354 -5.39287
upperback 5.04203 1.44965 -2.06792
thorax -3.45959 0.809844 0.598511
lowerneck -4.64619 2.53646 6.66743
upperneck -0.633811 3.08288 -2.63398
head 0.747464 1.51914 -1.9023
rclavicle -9.54166e-015 1.74931e-014
rhumerus -50.6482 17.2649 -92.301
rradius 40.8473
rwrist 1.22011
rhand -11.8284 -14.5457
rfingers 7.12502
rthumb 14.2223 -44.0387
lclavicle -9.54166e-015 1.74931e-014
lhumerus -34.4493 -9.54189 72.6657
lradius 63.8133
lwrist 8.88602
lhand -5.69457 11.0061
lfingers 7.12502
lthumb 20.1259 39.9836
rfemur -22.9432 0.378515 19.996
rtibia 49.366
rfoot -20.0437 4.8412
rtoes -18.656
lfemur -9.41001 -3.46677 -15.8391
ltibia 30.7628
lfoot -27.8134 -7.37937
ltoes -0.212481
202
root -29.7783 17.5823 15.2979 -8.37505 73.3057 -19.7819
lowerback 15.7659 1.53523 -5.42133
upperback 5.05123 1.32233 -2.04194
thorax -3.51774 0.748545 0.66238
lowerneck -4.71333 2.58775 6.71491
upperneck -0.524741 3.14453 -2.75947
head 0.800636 1.54928 -1.94949
rclavicle -2.06736e-014 -1.59028e-014
rhumerus -50.6407 17.1846 -92.287
rradius 40.6619
rwrist 1.38968
rhand -11.6359 -14.5632
rfingers 7.12502
rthumb 14.4079 -44.0431
lclavicle -2.06736e-014 -1.59028e-014
lhumerus -34.3168 -9.64862 72.4557
lradius 64.238
lwrist 9.00739
lhand -5.89228 11.1335
lfingers 7.12502
lthumb 19.9359 40.1309
rfemur -23.4772 0.562852 19.987
rtibia 48.8189
rfoot -20.1224 4.81153
rtoes -18.5565
lfemur -8.79609 -3.4067 -15.9555
ltibia 30.3755
lfoot -27.3085 -7.7398
ltoes -0.928422
203
root -29.6703 17.6008 15.3233 -8.18399 73.3585 -19.5091
lowerback 15.9044 1.44256 -5.42369
upperback 5.0542 1.19289 -2.00613
thorax -3.5826 0.686261 0.722708
lowerneck -4.77065 2.6354 6.76413
upperneck -0.419025 3.20222 -2.89568
head 0.851395 1.57719 -2.00079
rclavicle 5.64548e-014 -1.11319e-014
rhumerus -50.6356 17.0757 -92.2551
rradius 40.4758
rwrist 1.58876
rhand -11.43 -14.5672
rfingers 7.12502
rthumb 14.6063 -44.0329
lclavicle 5.64548e-014 -1.11319e-014
lhumerus -34.2136 -9.73109 72.2537
lradius 64.645
lwrist 9.07511
lhand -6.05549 11.2888
lfingers 7.12502
lthumb 19.779 40.3024
rfemur -23.9703 0.812647 19.9877
rtibia 48.1454
rfoot -20.1978 4.78054
rtoes -18.4465
lfemur -8.1781 -3.35418 -16.0456
ltibia 29.9654
lfoot -26.7255 -8.12642
ltoes -1.77669
204
root -29.5593 17.6219 15.3496 -7.8308 73.45 -19.0788
lowerback 16.0281 1.34483 -5.45404
upperback 5.04995 1.05282 -1.97808
thorax -3.64655 0.618851 0.793295
lowerneck -4.80755 2.67467 6.81133
upperneck -0.317417 3.25057 -3.04739
head 0.897408 1.60016 -2.05738
rclavicle -2.46493e-014 -3.02153e-014
rhumerus -50.6349 16.9309 -92.1961
rradius 40.2916
rwrist 1.81779
rhand -11.1836 -14.5687
rfingers 7.12502
rthumb 14.8436 -44.017
lclavicle -2.46493e-014 -3.02153e-014
lhumerus -34.1426 -9.79112 72.0703
lradius 65.0307
lwrist 9.09862
lhand -6.1839 11.4771
lfingers 7.12502
lthumb 19.6556 40.5034
rfemur -24.4266 1.09117 19.9131
rtibia 47.3552
rfoot -20.2791 4.7775
rtoes -18.2996
lfemur -7.5636 -3.3225 -16.1909
ltibia 29.5307
lfoot -26.0664 -8.53998
ltoes -2.79268
205
root -29.445 17.6454 15.3772 -7.36135 73.5651 -18.5414
lowerback 16.1256 1.24647 -5.49943
upperback 5.04507 0.91115 -1.95648
thorax -3.69677 0.550471 0.866789
lowerneck -4.83853 2.70777 6.86916
upperneck -0.219431 3.29098 -3.21666
head 0.94172 1.61884 -2.12211
rclavicle -3.4191e-014 3.02153e-014
rhumerus -50.6311 16.746 -92.1152
rradius 40.1103
rwrist 2.07177
rhand -10.9173 -14.5624
rfingers 7.12502
rthumb 15.1001 -43.9916
lclavicle -3.4191e-014 3.02153e-014
lhumerus -34.0964 -9.83697 71.9021
lradius 65.4001
lwrist 9.10952
lhand -6.30005 11.6516
lfingers 7.12502
lthumb 19.5439 40.6893
rfemur -24.849 1.41521 19.7832
rtibia 46.4531
rfoot -20.3611 4.79
rtoes -18.2362
lfemur -6.95423 -3.31446 -16.3708
ltibia 29.0768
lfoot -25.3324 -8.97071
ltoes -3.94593
206
root -29.3281 17.6707 15.4058 -6.73591 73.7078 -17.862
lowerback 16.2038 1.14602 -5.57092
upperback 5.03551 0.763442 -1.94003
thorax -3.74104 0.479096 0.951311
lowerneck -4.87138 2.73856 6.92277
upperneck -0.120935 3.32886 -3.39561
head 0.986757 1.63603 -2.18952
rclavicle -6.36111e-015 6.36111e-015
rhumerus -50.6215 16.5274 -92.0049
rradius 39.9375
rwrist 2.35056
rhand -10.6083 -14.5598
rfingers 7.12502
rthumb 15.3978 -43.9663
lclavicle -6.36111e-015 6.36111e-015
lhumerus -34.075 -9.85614 71.7569
lradius 65.7487
lwrist 9.10947
lhand -6.37987 11.886
lfingers 7.12502
lthumb 19.4671 40.9314
rfemur -25.2493 1.77486 19.5863
rtibia 45.4496
rfoot -20.4414 4.80858
rtoes -18.1872
lfemur -6.35842 -3.32762 -16.5945
ltibia 28.602
lfoot -24.525 -9.4197
ltoes -5.21463
207
root -29.2084 17.6982 15.4355 -6.04585 73.8754 -17.1318
lowerback 16.2576 1.04096 -5.64076
upperback 5.02709 0.611751 -1.92143
thorax -3.77033 0.405435 1.03861
lowerneck -4.90568 2.76475 6.97363
upperneck -0.0249503 3.36121 -3.58675
head 1.03141 1.65015 -2.26083
rclavicle 3.57812e-014 1.74931e-014
rhumerus -50.6049 16.2782 -91.8682
rradius 39.7709
rwrist 2.63446
rhand -10.2941 -14.5566
rfingers 7.12502
rthumb 15.7004 -43.9397
lclavicle 3.57812e-014 1.74931e-014
lhumerus -34.073 -9.85609 71.6372
lradius 66.0743
lwrist 9.11724
lhand -6.47323 12.0923
lfingers 7.12502
lthumb 19.3774 41.1469
rfemur -25.6172 2.16752 19.3534
rtibia 44.3441
rfoot -20.5159 4.81455
rtoes -18.1269
lfemur -5.7792 -3.372 -16.8317
ltibia 28.1187
lfoot -23.6531 -9.88068
ltoes -6.5287
208
root -29.0856 17.7263 15.4668 -5.31983 74.0506 -16.3717
lowerback 16.2891 0.934234 -5.7133
upperback 5.02905 0.460126 -1.89768
thorax -3.77617 0.331249 1.13341
lowerneck -4.97757 2.79421 7.02656
upperneck 0.0837382 3.396 -3.79146
head 1.08751 1.66507 -2.33683
rclavicle 1.74931e-014 -3.97569e-014
rhumerus -50.5603 16.0133 -91.7098
rradius 39.6057
rwrist 2.91103
rhand -9.97435 -14.5694
rfingers 7.12502
rthumb 16.0083 -43.928
lclavicle 1.74931e-014 -3.97569e-014
lhumerus -34.1088 -9.82876 71.537
lradius 66.4029
lwrist 9.14386
lhand -6.58923 12.2674
lfingers 7.12502
lthumb 19.2659 41.3331
rfemur -25.9347 2.60946 19.0966
rtibia 43.136
rfoot -20.5887 4.79271
rtoes -18.1022
lfemur -5.20885 -3.43066 -17.0705
ltibia 27.6421
lfoot -22.7375 -10.3518
ltoes -7.83779
